# xmcd
#
# Track frame offsets: 
#        150
#        14398
#        29464
#        44308
#        56154
#        67994
#        80488
#        99336
#        110459
#        123274
#        137844
#        151484
#        168243
#        182283
#        195534
#        208954
#        219967
#        235132
#        252152
#        265631
#
# Disc length: 3796 seconds
#
# Revision: 0
# Processed by: cddbd v1.5.2PL0 Copyright (c) Steve Scherf et al.
# Submitted via: ExactAudioCopyFreeDBPlugin 1.0
#
DISCID=0d0ed214
DTITLE=Tom Jones - When I Fall In Love
DYEAR=2005
DGENRE=Blues
TTITLE0=Autumn Leaves
TTITLE1=Spanish Harlem
TTITLE2=Begin the Beguine
TTITLE3=You Came A Long Way from St. Louis
TTITLE4=My Foolish Heart
TTITLE5=It's Magic
TTITLE6=Georgia on My Mind
TTITLE7=Hello Young Lovers
TTITLE8=Taste of Honey
TTITLE9=Neamess of You
TTITLE10=When I Fall in Love
TTITLE11=My Prayer
TTITLE12=That Old Black Magic
TTITLE13=Mother's Eyes
TTITLE14=Brother, Can You Spate A Dime
TTITLE15=Fly Me to the Moon
TTITLE16=(Sitting on) the Dock of the Bay
TTITLE17=Hey Jude
TTITLE18=Let it Be Me
TTITLE19=You've Lost that Lovin'Feelin'
EXTD=
EXTT0=
EXTT1=
EXTT2=
EXTT3=
EXTT4=
EXTT5=
EXTT6=
EXTT7=
EXTT8=
EXTT9=
EXTT10=
EXTT11=
EXTT12=
EXTT13=
EXTT14=
EXTT15=
EXTT16=
EXTT17=
EXTT18=
EXTT19=
PLAYORDER=
